<svg width="350" height="172" viewBox="0 0 350 172" fill="none" xmlns="http://www.w3.org/2000/svg" role="img" aria-label="Linguagens mais usadas, incluindo repositórios privados">
  <style>
    .title { font: 600 18px 'Segoe UI', Ubuntu, sans-serif; fill: #70a5fd; }
    .lang { font: 400 11px 'Segoe UI', Ubuntu, sans-serif; fill: #38bdae; }
  </style>
  <rect x="0.5" y="0.5" width="349" height="171" rx="4.5" fill="#1a1b27" stroke="#e4e2e2" stroke-opacity="0.3" />
  <text x="25" y="33" class="title">Linguagens mais usadas</text>
  <defs>
    <clipPath id="bar-round"><rect x="25" y="0" width="300" height="8" rx="4" /></clipPath>
  </defs>
  <g transform="translate(0, 47)" clip-path="url(#bar-round)">
    <rect x="25.0" y="0" width="188.9" height="8" fill="#4A76B8" />
    <rect x="215.9" y="0" width="71.8" height="8" fill="#3572A5" />
    <rect x="289.7" y="0" width="9.2" height="8" fill="#f1e05a" />
    <rect x="300.9" y="0" width="4.3" height="8" fill="#e34c26" />
    <rect x="307.1" y="0" width="3.0" height="8" fill="#663399" />
    <rect x="312.1" y="0" width="3.0" height="8" fill="#62A8D6" />
    <rect x="317.1" y="0" width="3.0" height="8" fill="#4F5D95" />
    <rect x="322.0" y="0" width="3.0" height="8" fill="#3178c6" />
  </g>
  <g>
    <circle cx="30" cy="74" r="5" fill="#4A76B8" /><text x="41" y="78" class="lang">MQL5 66.79%</text>
    <circle cx="30" cy="95" r="5" fill="#3572A5" /><text x="41" y="99" class="lang">Python 25.37%</text>
    <circle cx="30" cy="116" r="5" fill="#f1e05a" /><text x="41" y="120" class="lang">JavaScript 3.24%</text>
    <circle cx="30" cy="137" r="5" fill="#e34c26" /><text x="41" y="141" class="lang">HTML 1.50%</text>
    <circle cx="193" cy="74" r="5" fill="#663399" /><text x="204" y="78" class="lang">CSS 0.96%</text>
    <circle cx="193" cy="95" r="5" fill="#62A8D6" /><text x="204" y="99" class="lang">MQL4 0.93%</text>
    <circle cx="193" cy="116" r="5" fill="#4F5D95" /><text x="204" y="120" class="lang">PHP 0.64%</text>
    <circle cx="193" cy="137" r="5" fill="#3178c6" /><text x="204" y="141" class="lang">TypeScript 0.56%</text>
  </g>
</svg>
